# File created by Blade
# Date/Time:  Tue Apr 07 21:12:38 2015
# Frame Rate: 120.000 fps
#------------------------------------------------------
:FULLY-SPECIFIED
:DEGREES
1893
root 8.024056 32.948075 7.783739 739.880760 -45.702265 -727.396460
Spine -4.572688 -7.372359 3.415274
Head 13.242640 5.779072 3.370321
LeftShoulder 161.709198 138.979689 198.712860
LeftArm 61.900994 -54.219892 -84.214788
LeftForeArm 2.291069 -0.000000 36.008514
LeftHand 16.059507 0.000000 21.691502
LeftHandThumb1 -26.253704 0.000000 33.147579
RightShoulder -4.165200 -1.573214 -23.691563
RightArm 7.011441 17.735076 56.042967
RightForeArm -8.330130 0.000000 29.101232
RightHand 10.154761 -0.000000 -8.341437
RightHandThumb1 -24.326973 -0.000000 -32.862282
LeftUpLeg -22.842735 -15.715508 12.805805
LeftLeg 19.628036 -0.000000 -0.000000
LeftFoot -6.255128 -14.702916 -22.526228
LeftToeBase -16.705845 -0.000000 0.000000
RightUpLeg -39.538565 4.862342 -10.029976
RightLeg 34.889151 -0.000000 -0.000000
RightFoot 13.069953 10.182015 16.641482
RightToeBase -19.425313 -0.000000 0.000000
1894
root 7.810576 32.992851 7.761965 739.714247 -44.078119 -727.374991
Spine -4.866464 -7.759168 3.777820
Head 13.168182 5.450891 3.544904
LeftShoulder 161.781662 139.111621 198.774129
LeftArm 62.237170 -54.176465 -83.571814
LeftForeArm 2.158389 -0.000000 35.879636
LeftHand 16.037076 -0.000000 21.528668
LeftHandThumb1 -26.253704 0.000000 33.147579
RightShoulder -4.301487 -1.534554 -23.741356
RightArm 6.811479 17.268372 55.732698
RightForeArm -8.251610 0.000000 28.618643
RightHand 10.312337 -0.000000 -8.894440
RightHandThumb1 -24.326973 -0.000000 -32.862282
LeftUpLeg -22.433972 -16.243052 13.346131
LeftLeg 18.752934 -0.000000 -0.000000
LeftFoot -5.487689 -14.756029 -21.901440
LeftToeBase -18.642506 -0.000000 0.000000
RightUpLeg -38.247039 4.998345 -9.942889
RightLeg 33.759494 -0.000000 -0.000000
RightFoot 12.675280 10.199906 17.463656
RightToeBase -21.188619 -0.000000 0.000000
1895
root 7.600170 33.029514 7.745569 739.471451 -42.414932 -727.248626
Spine -5.167731 -8.151732 4.062346
Head 13.084723 5.086530 3.770023
LeftShoulder 161.885704 139.257304 198.875150
LeftArm 62.590484 -54.032234 -82.881863
LeftForeArm 2.121554 -0.000000 35.655027
LeftHand 16.065438 0.000000 21.487553
LeftHandThumb1 -26.253704 0.000000 33.147579
RightShoulder -4.450874 -1.563797 -23.811714
RightArm 6.761474 17.374624 55.632112
RightForeArm -8.743069 -0.000000 27.952593
RightHand 10.633108 -0.000000 -9.005191
RightHandThumb1 -24.326973 -0.000000 -32.862282
LeftUpLeg -22.085457 -16.928967 13.853139
LeftLeg 17.926239 -0.000000 -0.000000
LeftFoot -4.798396 -14.728761 -21.559420
LeftToeBase -19.862915 -0.000000 0.000000
RightUpLeg -36.952971 5.026134 -9.849609
RightLeg 32.708719 -0.000000 -0.000000
RightFoot 12.147594 9.972433 18.315865
RightToeBase -22.890394 -0.000000 0.000000
1896
root 7.385382 33.058635 7.732840 739.138529 -40.802173 -727.080190
Spine -5.389525 -8.504347 4.266750
Head 12.952800 4.789637 3.957070
LeftShoulder 162.070953 139.585023 199.087410
LeftArm 62.494531 -53.831648 -81.847479
LeftForeArm 2.035228 -0.000000 35.433991
LeftHand 16.031447 0.000000 21.399163
LeftHandThumb1 -26.253704 0.000000 33.147579
RightShoulder -4.580559 -1.614050 -23.869095
RightArm 6.643368 17.213681 55.446523
RightForeArm -8.958152 0.000000 27.404721
RightHand 10.717063 -0.000000 -9.374554
RightHandThumb1 -24.326973 -0.000000 -32.862282
LeftUpLeg -21.687008 -17.621969 14.297591
LeftLeg 17.136066 -0.000000 -0.000000
LeftFoot -4.158747 -14.820704 -21.306253
LeftToeBase -20.885510 -0.000000 0.000000
RightUpLeg -35.603882 5.040167 -9.712924
RightLeg 31.720125 -0.000000 -0.000000
RightFoot 11.564578 9.597347 18.883868
RightToeBase -24.039683 -0.000000 0.000000
1897
root 7.175381 33.082394 7.716024 738.907177 -39.159759 -726.934549
Spine -5.675163 -8.843260 4.510858
Head 12.735305 4.552092 4.095163
LeftShoulder 162.242257 139.794870 199.247679
LeftArm 62.559515 -53.604930 -80.939604
LeftForeArm 1.979478 -0.000000 35.203162
LeftHand 16.119062 -0.000000 21.013206
LeftHandThumb1 -26.253704 0.000000 33.147579
RightShoulder -4.750943 -1.662659 -23.943927
RightArm 6.539747 16.976994 55.247400
RightForeArm -9.202034 0.000000 26.817068
RightHand 10.887977 -0.000000 -9.783302
RightHandThumb1 -24.326973 -0.000000 -32.862282
LeftUpLeg -21.458229 -18.246291 14.788749
LeftLeg 16.448580 -0.000000 -0.000000
LeftFoot -3.539007 -15.017886 -21.051531
LeftToeBase -21.859392 -0.000000 0.000000
RightUpLeg -34.324594 5.011805 -9.508007
RightLeg 30.697422 -0.000000 -0.000000
RightFoot 11.099207 8.920631 18.919038
RightToeBase -27.070417 -0.000000 0.000000
1898
root 6.964227 33.100170 7.701091 738.602691 -37.564849 -726.737211
Spine -5.904530 -9.098619 4.656539
Head 12.488320 4.328750 4.266767
LeftShoulder 162.425506 139.838615 199.403162
LeftArm 62.806660 -53.338462 -80.154698
LeftForeArm 1.914280 -0.000000 34.968101
LeftHand 16.094790 0.000000 20.698540
LeftHandThumb1 -26.253704 0.000000 33.147579
RightShoulder -4.925416 -1.704502 -24.025488
RightArm 6.367374 16.859308 55.092672
RightForeArm -9.403420 -0.000000 26.246981
RightHand 11.098300 -0.000000 -9.793246
RightHandThumb1 -24.326973 -0.000000 -32.862282
LeftUpLeg -21.218523 -18.825037 15.206925
LeftLeg 15.826547 -0.000000 -0.000000
LeftFoot -2.923857 -15.286544 -20.916132
LeftToeBase -22.549167 -0.000000 0.000000
RightUpLeg -33.005678 5.021734 -9.337131
RightLeg 29.696163 -0.000000 -0.000000
RightFoot 10.622532 8.160174 18.977174
RightToeBase -29.046117 -0.000000 0.000000
1899
root 6.759195 33.113483 7.684162 738.287639 -35.978880 -726.502864
Spine -6.110529 -9.291106 4.758102
Head 12.164563 4.013608 4.349850
LeftShoulder 162.748336 139.914763 199.662132
LeftArm 62.961422 -53.072212 -79.403918
LeftForeArm 1.843999 -0.000000 34.811777
LeftHand 15.975550 0.000000 20.382895
LeftHandThumb1 -26.253704 0.000000 33.147579
RightShoulder -5.141492 -1.749846 -24.118530
RightArm 6.237483 16.724095 54.954854
RightForeArm -9.536935 -0.000000 25.623716
RightHand 11.178881 -0.000000 -10.173104
RightHandThumb1 -24.326973 -0.000000 -32.862282
LeftUpLeg -21.052671 -19.378657 15.582343
LeftLeg 15.298190 -0.000000 -0.000000
LeftFoot -2.373464 -15.593765 -20.716604
LeftToeBase -23.188507 -0.000000 0.000000
RightUpLeg -31.676265 5.091245 -9.213386
RightLeg 28.631363 -0.000000 -0.000000
RightFoot 10.020770 7.233872 19.310381
RightToeBase -30.886460 -0.000000 0.000000
1900
root 6.557395 33.124916 7.665901 737.963394 -34.417234 -726.228273
Spine -6.302908 -9.476290 4.808787
Head 11.793145 3.761435 4.437815
LeftShoulder 163.029621 140.000551 199.883091
LeftArm 63.088830 -52.774661 -78.590805
LeftForeArm 2.039712 -0.000000 34.596400
LeftHand 15.947078 0.000000 19.769928
LeftHandThumb1 -26.253704 0.000000 33.147579
RightShoulder -5.335953 -1.799728 -24.206716
RightArm 6.110004 16.693024 54.839793
RightForeArm -9.662972 -0.000000 25.018634
RightHand 11.155601 -0.000000 -10.265329
RightHandThumb1 -24.326973 -0.000000 -32.862282
LeftUpLeg -20.941758 -19.856498 15.894617
LeftLeg 14.843564 -0.000000 -0.000000
LeftFoot -1.794181 -15.920581 -20.608881
LeftToeBase -23.786672 -0.000000 0.000000
RightUpLeg -30.337457 5.252846 -9.149302
RightLeg 27.532194 -0.000000 -0.000000
RightFoot 9.061480 6.167248 19.510277
RightToeBase -31.992387 -0.000000 0.000000
1901
root 6.358219 33.133943 7.649155 737.593997 -32.863672 -725.911651
Spine -6.445091 -9.706310 4.811114
Head 11.380862 3.590819 4.419522
LeftShoulder 163.271142 140.148867 200.094061
LeftArm 63.057940 -52.423912 -77.684820
LeftForeArm 2.283074 0.000000 34.399056
LeftHand 15.766854 -0.000000 19.383147
LeftHandThumb1 -26.253704 0.000000 33.147579
RightShoulder -5.507260 -1.855785 -24.277872
RightArm 6.060757 16.667964 54.722744
RightForeArm -9.835209 -0.000000 24.362394
RightHand 11.010083 -0.000000 -10.039325
RightHandThumb1 -24.326973 -0.000000 -32.862282
LeftUpLeg -20.816584 -20.287798 16.133466
LeftLeg 14.417040 -0.000000 -0.000000
LeftFoot -1.219135 -16.273536 -20.512177
LeftToeBase -24.244220 -0.000000 0.000000
RightUpLeg -28.997779 5.341400 -9.068663
RightLeg 26.515422 -0.000000 -0.000000
RightFoot 7.926367 5.209137 19.496421
RightToeBase -31.157648 -0.000000 0.000000
1902
root 6.155189 33.139346 7.635903 737.221536 -31.398327 -725.569634
Spine -6.609409 -9.852797 4.721865
Head 11.046462 3.502015 4.442619
LeftShoulder 163.427767 140.291935 200.267679
LeftArm 63.073326 -51.983360 -76.708871
LeftForeArm 2.751859 -0.000000 34.123804
LeftHand 15.773850 0.000000 18.847883
LeftHandThumb1 -26.253704 0.000000 33.147579
RightShoulder -5.649942 -1.896948 -24.353234
RightArm 5.951928 16.611446 54.631951
RightForeArm -10.066874 -0.000000 23.657478
RightHand 11.407443 -0.000000 -10.552671
RightHandThumb1 -24.326973 -0.000000 -32.862282
LeftUpLeg -20.668246 -20.616580 16.299109
LeftLeg 14.011221 -0.000000 -0.000000
LeftFoot -0.663783 -16.671713 -20.426876
LeftToeBase -24.720219 -0.000000 0.000000
RightUpLeg -27.695794 5.493355 -8.990904
RightLeg 25.534353 -0.000000 -0.000000
RightFoot 6.722504 4.196407 19.169623
RightToeBase -30.315080 -0.000000 0.000000
1903
root 5.957268 33.144225 7.618194 736.854509 -29.976923 -725.218363
Spine -6.719809 -9.992805 4.610300
Head 10.613771 3.387861 4.393206
LeftShoulder 163.560588 140.253555 200.364957
LeftArm 63.124863 -51.594579 -75.783475
LeftForeArm 3.021756 -0.000000 33.967855
LeftHand 15.861738 -0.000000 18.357890
LeftHandThumb1 -26.253704 0.000000 33.147579
RightShoulder -5.779349 -1.916632 -24.465435
RightArm 5.880098 16.634587 54.615048
RightForeArm -10.291992 -0.000000 22.946408
RightHand 11.525047 -0.000000 -10.585556
RightHandThumb1 -24.326973 -0.000000 -32.862282
LeftUpLeg -20.549744 -20.869370 16.423267
LeftLeg 13.642842 -0.000000 -0.000000
LeftFoot -0.102808 -17.077346 -20.340208
LeftToeBase -25.210377 -0.000000 0.000000
RightUpLeg -26.456546 5.579825 -8.890190
RightLeg 24.605399 -0.000000 -0.000000
RightFoot 5.577212 3.220924 18.830970
RightToeBase -29.243375 -0.000000 0.000000
1904
root 5.757672 33.145897 7.600599 736.456175 -28.624496 -724.845285
Spine -6.769446 -10.044816 4.424380
Head 10.148598 3.228297 4.339038
LeftShoulder 163.771519 140.324798 200.561454
LeftArm 62.931378 -51.180960 -74.697536
LeftForeArm 3.409761 -0.000000 33.787962
LeftHand 15.872591 0.000000 17.841876
LeftHandThumb1 -26.253704 0.000000 33.147579
RightShoulder -5.959977 -1.976082 -24.595763
RightArm 5.852925 16.589123 54.646390
RightForeArm -10.516909 -0.000000 22.246073
RightHand 11.715798 -0.000000 -10.788836
RightHandThumb1 -24.326973 -0.000000 -32.862282
LeftUpLeg -20.392286 -21.084645 16.484303
LeftLeg 13.289073 -0.000000 -0.000000
LeftFoot 0.457096 -17.487213 -20.353968
LeftToeBase -25.533955 -0.000000 0.000000
RightUpLeg -25.273451 5.543160 -8.732419
RightLeg 23.774966 -0.000000 -0.000000
RightFoot 4.240103 2.264483 17.936564
RightToeBase -27.585983 -0.000000 0.000000
